<svg width="129" height="128" viewBox="0 0 129 128" fill="none" xmlns="http://www.w3.org/2000/svg">
<path d="M64.5005 47.9972V69.3305M64.5005 90.6638H64.5538M55.1138 21.1012L10.1964 96.0878C9.27097 97.6916 8.7814 99.5096 8.77641 101.361C8.77141 103.213 9.25116 105.034 10.168 106.642C11.0848 108.251 12.4067 109.592 14.0023 110.531C15.5979 111.471 17.4116 111.976 19.2631 111.997H109.103C110.955 111.976 112.768 111.471 114.364 110.531C115.96 109.592 117.281 108.251 118.198 106.642C119.115 105.034 119.595 103.213 119.59 101.361C119.585 99.5096 119.095 97.6916 118.17 96.0878L73.2471 21.1012C72.3012 19.5438 70.9701 18.2563 69.382 17.3628C67.794 16.4694 66.0026 16 64.1804 16C62.3583 16 60.5669 16.4694 58.9788 17.3628C57.3908 18.2563 56.0597 19.5438 55.1138 21.1012Z" stroke="#FAEBE8" stroke-width="8" stroke-linecap="round" stroke-linejoin="round"/>
</svg>
