<svg width="256" height="209" viewBox="0 0 256 209" fill="none" xmlns="http://www.w3.org/2000/svg">
<g clip-path="url(#clip0_799_12891)">
<path d="M172.629 146.845H166.132C167.407 145.079 168.196 142.643 168.196 140.025C168.196 134.484 164.796 130.039 160.546 130.039H6.99031C2.74005 130.039 -0.660156 134.545 -0.660156 140.025C-0.660156 145.566 2.74005 150.011 6.99031 150.011H11.362C12.0299 150.011 12.6371 150.194 13.1228 150.498C12.0299 152.203 11.362 154.456 11.362 156.831C11.362 162.372 14.7622 166.816 19.0125 166.816H23.3842C25.8129 166.816 27.7558 169.435 27.7558 172.662V172.723C27.7558 178.264 31.1561 182.709 35.4063 182.709H144.516C148.767 182.709 152.167 178.203 152.167 172.723V172.662C152.167 169.496 154.11 166.816 156.539 166.816H172.629C176.879 166.816 180.279 162.311 180.279 156.831C180.279 151.29 176.879 146.845 172.629 146.845Z" fill="#E1ECFF"/>
<path d="M161.579 92.4685L79.7923 61.293L78.6387 118.408L151.014 152.384C152.897 153.297 155.083 152.019 155.325 149.948L161.579 92.4685Z" fill="#947FA9"/>
<path d="M32.6114 138.258L78.6356 118.408L79.7892 61.293L24.9609 84.6746L28.2397 135.578C28.4219 137.77 30.6077 139.11 32.6114 138.258Z" fill="#6B5A7B"/>
<path d="M79.7914 61.293H63.094C59.9366 61.293 56.84 61.9628 53.9863 63.2414L8.38709 83.4568C7.17273 84.0048 7.59776 85.8315 8.93355 85.7098L24.9024 84.6746L79.7914 61.293Z" fill="#DACAE9"/>
<path d="M79.791 61.293L161.578 92.4685H170.382C171.414 92.4685 171.657 91.0072 170.686 90.6418L93.999 62.2063C92.4203 61.5974 90.7202 61.293 89.0201 61.293H79.791Z" fill="#DACAE9"/>
<path d="M99.4626 131.87L93.4515 149.102C93.4515 149.102 82.158 137.594 72.6253 117.804C70.1965 112.812 69.2858 107.514 69.2251 102.46C69.0429 89.7343 74.6289 78.5915 77.1184 78.3479C79.7293 78.1044 76.329 88.5165 77.2398 98.9896C77.5434 102.46 78.272 105.87 79.8507 108.975C87.9869 124.989 99.4626 131.87 99.4626 131.87Z" fill="#FF8D76"/>
<path d="M77.1793 98.99C75.297 100.147 72.079 101.852 69.1645 102.4C68.9824 89.6739 74.5684 78.5311 77.0578 78.2875C79.6687 78.1049 76.3292 88.517 77.1793 98.99Z" fill="#FFD3B3"/>
<path d="M139.05 137.042C138.564 149.403 128.91 159.876 116.038 161.703C113.912 162.007 111.666 162.19 109.237 162.19C106.869 162.19 104.744 162.129 102.74 161.885C90.6575 160.607 81.1248 151.473 79.6675 140.026C78.271 128.944 77.2995 112.382 81.732 101.178C82.8249 98.3774 84.3428 96.0028 86.1036 93.9325C92.1754 86.9911 101.283 84.4946 108.448 84.3728C115.673 84.251 125.813 86.0777 132.249 93.1409C135.224 96.3681 137.41 100.691 138.2 106.476C139.475 116.035 139.414 127.909 139.05 137.042Z" fill="#FEA691"/>
<path d="M108.325 150.564C119.983 150.747 128.362 145.815 129.151 133.271C129.941 120.728 131.762 100.452 109.236 99.9647C86.7094 99.4776 89.0774 122.25 88.8952 130.775C88.7131 139.3 93.9348 150.321 108.325 150.564Z" fill="#FFD3B3"/>
<path d="M132.189 93.2038C125.995 96.37 117.556 98.3794 108.266 98.3794C99.7652 98.3794 91.9933 96.7354 86.043 94.0562C92.1148 87.1148 101.222 84.6183 108.387 84.4965C115.613 84.3139 125.752 86.1406 132.189 93.2038Z" fill="#FF8D76"/>
<path d="M24.9609 84.6758L28.2397 135.458C28.4219 138.32 30.0612 140.877 32.6114 142.217L103.409 179.786L104.501 118.53L24.9609 84.6758Z" fill="#DACAE9"/>
<path d="M27.0255 116.765L85.0719 145.139C88.1078 146.601 91.6901 145.687 93.6331 142.947L104.441 127.481V118.53L24.9004 84.6758L27.0255 116.765Z" fill="#947FA9"/>
<path d="M16.7648 107.205L85.8011 139.842C87.8048 140.816 90.1728 140.146 91.4479 138.259L104.563 118.53L25.0225 84.6758L14.9433 100.751C13.4253 103.064 14.3361 106.048 16.7648 107.205Z" fill="#DACAE9"/>
<path d="M150.042 156.647L103.41 179.785L104.503 118.53L161.578 92.4688L155.445 148.914C155.081 152.262 153.017 155.124 150.042 156.647Z" fill="#947FA9"/>
<path d="M104.504 127.478L110.94 141.483C112.519 144.893 116.587 146.293 119.926 144.649L158.057 125.347L161.64 92.5273L104.565 118.588V127.478H104.504Z" fill="#6B5A7B"/>
<path d="M115.615 138.258L104.504 118.53L161.579 92.4688L171.962 109.944C172.994 111.649 172.326 113.902 170.565 114.754L120.108 139.597C118.469 140.389 116.526 139.78 115.615 138.258Z" fill="#DACAE9"/>
<path d="M174.815 59.103C174.694 61.5386 171.962 75.4824 158.3 87.2341C145.549 98.1943 128.305 106.536 128.305 106.536L127.334 80.8407C127.334 80.8407 142.999 76.2131 152.168 68.2365C161.336 60.2599 164.554 52.4052 166.861 51.4309C167.833 51.0047 168.683 51.0656 169.29 51.1874C170.14 51.37 170.626 51.8572 170.626 51.8572C170.626 51.8572 170.687 51.8572 170.808 51.7963C171.233 51.6745 172.265 51.5527 173.237 52.6487C173.905 53.3794 173.723 55.5105 173.723 55.5105C173.723 55.5105 174.451 56.2412 174.633 57.7635C174.815 58.1897 174.876 58.6159 174.815 59.103Z" fill="#FEA691"/>
<path d="M162.499 70.2266C164.547 71.4448 167.427 70.3692 168.933 67.8242C170.438 65.2792 169.999 62.2285 167.952 61.0104C165.904 59.7922 163.024 60.8678 161.518 63.4128C160.012 65.9578 160.452 69.0085 162.499 70.2266Z" fill="#FFD3B3"/>
<path d="M170.931 51.855C170.81 52.403 170.567 53.3163 170.02 54.6559C169.049 56.9697 168.32 58.0049 167.956 58.1266C167.045 58.492 166.924 57.2133 167.834 55.4475C168.502 54.047 169.109 52.0377 169.352 51.2461C170.202 51.4288 170.688 51.9159 170.688 51.9159C170.688 51.9159 170.81 51.855 170.931 51.855Z" fill="#FF8D76"/>
<path d="M174.817 57.8232C174.695 58.0668 174.635 58.3104 174.513 58.6148C173.481 60.9286 172.692 61.9029 172.327 62.0246C171.417 62.3291 171.356 61.1113 172.267 59.3455C173.238 57.5797 173.906 55.5703 173.906 55.5703C173.906 55.5703 174.574 56.301 174.817 57.8232Z" fill="#FF8D76"/>
<path d="M129.033 106.292C128.73 106.292 128.426 106.109 128.305 105.805C128.123 105.379 128.305 104.891 128.73 104.709C128.851 104.648 143.363 98.3153 155.689 88.1467C171.293 75.299 173.236 62.3904 173.236 62.2686C173.297 61.8424 173.722 61.477 174.147 61.5379C174.572 61.5988 174.936 62.025 174.875 62.4513C174.815 62.9993 172.872 76.0297 156.721 89.3645C144.213 99.6549 129.58 106.109 129.398 106.17C129.276 106.231 129.155 106.292 129.033 106.292Z" fill="#FF8D76"/>
<path d="M115.068 32.0711C115.068 32.0711 121.14 18.2491 124.723 17.5794C128.244 16.9096 130.066 25.6168 131.523 32.8627C133.041 40.1086 133.405 46.1366 133.405 46.1366L115.068 32.0711Z" fill="#FEA691"/>
<path d="M118.225 32.0112C118.225 32.0112 122.232 22.9995 124.539 22.5732C126.847 22.147 128 27.8706 128.972 32.5592C129.943 37.3086 130.247 41.2055 130.247 41.2055L118.225 32.0112Z" fill="#FFD3B3"/>
<path d="M102.196 32.0711C102.196 32.0711 96.1244 18.2491 92.542 17.5794C89.0204 16.9096 87.1989 25.6168 85.7416 32.8627C84.2844 40.1086 83.8594 46.1366 83.8594 46.1366L102.196 32.0711Z" fill="#FEA691"/>
<path d="M99.0378 32.0112C99.0378 32.0112 95.0304 22.9995 92.7231 22.5732C90.4158 22.147 89.2622 27.8706 88.2907 32.5592C87.3192 37.3086 87.0156 41.2055 87.0156 41.2055L99.0378 32.0112Z" fill="#FFD3B3"/>
<path d="M135.165 70.0705L119.257 69.6442L96.2453 69.0353L81.4908 68.67C81.4908 68.67 80.8229 47.9066 86.834 37.9207C89.9913 32.6233 95.881 28.909 102.378 27.3867C105.657 26.5952 109.117 26.3516 112.457 26.7778C116.829 27.3259 121.018 28.9699 124.297 31.8926C134.923 41.3305 133.83 50.0986 134.498 57.3445C135.165 64.5904 135.165 70.0705 135.165 70.0705Z" fill="#FEA691"/>
<path d="M119.256 69.6442L96.2441 69.0353C97.4585 65.93 99.5836 59.4756 100.798 50.7075C102.012 42.183 102.255 32.6842 102.316 27.3867C105.595 26.5952 109.056 26.3516 112.395 26.7778C112.456 31.7099 112.82 40.2954 114.277 49.916C115.917 60.6326 118.163 66.9651 119.256 69.6442Z" fill="#FFD3B3"/>
<path d="M137.351 76.0928C137.351 86.1396 124.357 94.2988 108.328 94.2988C92.2983 94.2988 79.3047 86.1396 79.3047 76.0928C79.3047 63.6104 92.2983 57.8867 108.328 57.8867C124.357 57.8867 137.351 64.2193 137.351 76.0928Z" fill="#FFD3B3"/>
<path d="M101.041 64.9531C102.62 62.7002 114.339 61.9086 115.978 64.4051C117.617 66.8407 113.306 72.1381 109.117 72.1381C104.927 72.1381 98.9161 67.9367 101.041 64.9531Z" fill="#413F4C"/>
<path d="M88.048 37.3079C87.8658 37.3079 87.6837 37.247 87.5622 37.1252C87.1979 36.8816 87.1372 36.3336 87.3801 35.9683C87.4408 35.8465 89.4445 33.2283 92.9054 30.9753C97.0343 28.2353 99.1594 27.6873 99.2201 27.6873C99.6451 27.5655 100.131 27.8091 100.192 28.2962C100.313 28.7224 100.07 29.2095 99.5844 29.2704C99.5844 29.2704 97.5807 29.8184 93.7555 32.3758C90.5374 34.5069 88.5945 37.0034 88.5945 37.0034C88.5337 37.1861 88.2909 37.3079 88.048 37.3079Z" fill="#FF8D76"/>
<path d="M128.124 37.3079C128.306 37.3079 128.488 37.247 128.609 37.1252C128.974 36.8816 129.035 36.3336 128.792 35.9683C128.731 35.8465 126.727 33.2283 123.266 30.9753C119.137 28.2353 117.012 27.6873 116.952 27.6873C116.527 27.5655 116.041 27.8091 115.98 28.2962C115.859 28.7224 116.102 29.2095 116.587 29.2704C116.587 29.2704 118.591 29.8184 122.416 32.3758C125.634 34.5069 127.577 37.0034 127.577 37.0034C127.638 37.1861 127.881 37.3079 128.124 37.3079Z" fill="#FF8D76"/>
<path d="M102.559 81.0272C102.559 81.0272 107.234 80.5401 109.48 76.8867C112.152 80.601 116.038 79.7485 116.038 79.7485C116.038 79.7485 116.827 87.0553 110.209 87.6033C103.226 88.2122 102.559 81.0272 102.559 81.0272Z" fill="#FF6EA9"/>
<path d="M109.421 85.2291C108.935 85.1682 108.51 84.7419 108.571 84.2548C108.631 81.8192 108.449 77.4961 108.449 77.4352C108.449 76.8872 108.814 76.4609 109.36 76.4609C109.846 76.4609 110.331 76.8263 110.331 77.3743C110.331 77.557 110.514 81.8801 110.453 84.3766C110.392 84.8028 109.967 85.2291 109.421 85.2291C109.481 85.2291 109.421 85.2291 109.421 85.2291Z" fill="#EA4E95"/>
<path d="M101.83 81.9975C98.9765 81.9975 96.7907 80.9624 96.73 80.9015C96.1835 80.6579 96.0013 79.9882 96.2442 79.4401C96.4871 78.8921 97.155 78.7095 97.7015 78.953C97.9443 79.0748 104.259 82.1193 108.631 76.2739C108.813 75.9694 109.177 75.8477 109.481 75.8477C109.845 75.8477 110.149 76.0303 110.331 76.3348C113.245 80.5362 119.135 78.405 119.378 78.3441C119.924 78.1615 120.531 78.405 120.774 78.953C120.956 79.501 120.714 80.1099 120.167 80.3535C117.738 81.2668 112.699 81.9366 109.481 78.6486C106.991 81.2668 104.198 81.9975 101.83 81.9975Z" fill="#413F4C"/>
<path d="M121.078 56.731C122.553 56.731 123.749 55.3134 123.749 53.5647C123.749 51.816 122.553 50.3984 121.078 50.3984C119.602 50.3984 118.406 51.816 118.406 53.5647C118.406 55.3134 119.602 56.731 121.078 56.731Z" fill="#413F4C"/>
<path d="M94.1208 56.731C95.5963 56.731 96.7924 55.3134 96.7924 53.5647C96.7924 51.816 95.5963 50.3984 94.1208 50.3984C92.6453 50.3984 91.4492 51.816 91.4492 53.5647C91.4492 55.3134 92.6453 56.731 94.1208 56.731Z" fill="#413F4C"/>
<path d="M116.584 43.8227C117.07 42.1786 119.985 42.3613 122.11 43.092C124.235 43.8227 125.935 45.2231 125.449 46.0756C124.963 46.9889 115.613 46.9889 116.584 43.8227Z" fill="#FFD3B3"/>
<path d="M97.5801 43.7582C97.0336 42.1141 94.1192 42.3577 91.994 43.1493C89.8689 43.9408 88.2295 45.3413 88.776 46.1937C89.3224 47.0462 98.673 46.8635 97.5801 43.7582Z" fill="#FFD3B3"/>
<path d="M253.505 163.47L222.478 174.248L208.149 179.241L204.688 180.458L179.429 189.227C175.847 190.505 171.839 189.592 169.046 186.974L165.828 183.868C164.007 182.102 164.128 179.241 165.768 177.597C166.193 177.17 166.739 176.805 167.346 176.622L241.301 150.805C243.487 150.074 245.855 150.501 247.555 152.023L254.416 157.99C254.659 158.173 254.841 158.416 255.023 158.66C256.237 160.365 255.569 162.739 253.505 163.47Z" fill="#DBEAFB"/>
<path d="M235.29 198.177L200.559 209.32C197.341 210.355 193.819 209.624 191.269 207.372L188.051 204.51C186.29 202.987 186.169 200.491 187.322 198.786C187.869 197.994 188.658 197.386 189.63 197.081L212.642 190.14C212.824 190.079 212.945 190.018 213.067 189.896C213.795 189.348 213.856 188.313 213.127 187.643L204.688 180.397L201.955 178.084L201.47 177.657C198.798 175.404 199.769 171.02 203.17 170.168L215.01 167.062L222.478 174.247L237.475 188.617C237.961 189.044 238.325 189.592 238.568 190.14C240.147 193.123 238.75 197.081 235.29 198.177Z" fill="#DBEAFB"/>
<path d="M213.127 189.893C213.856 189.345 213.917 188.309 213.188 187.64L204.748 180.394L179.49 189.162C175.907 190.441 171.9 189.527 169.107 186.909L165.889 183.804C164.067 182.038 164.189 179.176 165.828 177.532C167.407 179.846 172.871 185.204 176.454 185.326C179.915 185.448 205.356 176.375 205.356 176.375C205.356 176.375 216.467 185.874 216.892 186.361C218.046 187.579 215.07 189.405 213.127 189.893Z" fill="#99ADF9"/>
<path d="M253.505 163.47L222.478 174.248L219.199 171.203C219.199 171.203 249.68 160.122 253.626 159.025C254.173 158.904 254.658 158.782 255.144 158.66C256.237 160.365 255.569 162.74 253.505 163.47Z" fill="#99ADF9"/>
<path d="M235.289 198.18L200.559 209.323C197.341 210.358 193.819 209.627 191.269 207.374L188.051 204.512C186.29 202.99 186.169 200.493 187.322 198.789C190.055 200.676 195.641 204.573 197.037 204.938C198.859 205.365 206.327 202.929 214.463 200.006C222.599 197.084 235.957 191.664 238.629 190.203C240.147 193.126 238.75 197.084 235.289 198.18Z" fill="#99ADF9"/>
<path d="M240.084 111.772C238.93 108.179 235.895 104.952 230.126 102.151C212.154 93.383 192.663 111.285 181.066 123.828C175.237 130.16 171.534 135.884 170.684 140.877C169.833 145.809 171.776 149.95 177.302 152.994C198.553 164.807 217.072 149.341 228.548 136.797C236.198 128.212 242.513 119.322 240.084 111.772ZM214.825 127.907C204.2 137.467 194.849 145.748 187.381 141.425C186.774 141.06 186.349 140.633 186.106 140.085C184.892 137.284 188.96 132.048 198.492 124.071C209.847 114.512 216.465 109.397 222.294 111.589C223.751 112.137 224.662 112.807 225.026 113.659C226.301 116.278 222.84 120.662 214.825 127.907Z" fill="#DBEAFB"/>
<path d="M228.427 136.734C216.951 149.339 198.432 164.805 177.181 152.931C171.655 149.887 169.712 145.746 170.562 140.814C172.263 144.163 175.784 148.547 183.07 150.556C195.639 154.027 208.511 150.739 221.808 137.83C233.466 126.444 237.413 117.859 240.024 111.77C242.513 119.32 236.198 128.21 228.427 136.734Z" fill="#99ADF9"/>
<path d="M225.025 113.599C224.6 112.747 223.689 112.077 222.293 111.529C216.464 109.337 209.846 114.452 198.491 124.011C188.959 132.049 184.891 137.224 186.105 140.025C185.498 139.538 184.83 138.625 184.587 136.676C184.162 133.023 186.409 129.491 192.966 123.403C199.524 117.314 208.935 109.581 214.703 108.363C220.411 107.206 224.418 110.189 224.964 112.564C225.025 112.929 225.025 113.234 225.025 113.599Z" fill="#99ADF9"/>
<path d="M189.567 93.0204L184.103 95.5777C180.945 97.0391 177.12 95.6386 175.724 92.4115L146.822 26.2852C145.972 24.2758 146.397 22.0229 147.793 20.5007C148.279 19.9526 148.886 19.5264 149.554 19.222L156.476 16.1166C159.208 14.8988 162.366 16.1166 163.58 18.8566L192.664 84.8003C192.967 85.4092 193.089 86.0789 193.15 86.7487C193.392 89.3061 192.057 91.8635 189.567 93.0204Z" fill="#DBEAFB"/>
<path d="M207.115 43.0281L179.731 55.3887L173.902 58.007L164.309 44.4895L186.41 34.4427C186.714 34.3209 186.956 34.1382 187.199 33.8947C188.171 32.9813 188.353 31.3982 187.442 30.2413L176.331 16.1757C174.57 13.9228 174.813 10.8783 176.513 8.86898C177.059 8.19919 177.788 7.71207 178.638 7.34674L183.131 5.58094C185.438 4.66759 188.11 5.33737 189.689 7.34674L209.665 32.616C209.908 32.9204 210.09 33.2249 210.272 33.5902C212.094 37 210.758 41.3232 207.115 43.0281Z" fill="#DBEAFB"/>
<path d="M207.115 43.0317L179.731 55.3923L177.424 50.5211C177.424 50.5211 200.314 41.205 206.204 37.7951C208.39 36.5165 209.604 34.9942 210.272 33.5938C212.094 37.0036 210.758 41.3268 207.115 43.0317Z" fill="#99ADF9"/>
<path d="M189.567 93.0197L184.103 95.5771C180.945 97.0384 177.12 95.638 175.724 92.4108L146.822 26.2845C145.972 24.2752 146.397 22.0222 147.793 20.5C153.622 33.4086 179.367 90.4014 179.67 91.193C180.034 92.1064 180.156 92.7152 182.767 91.5583C185.196 90.4623 191.085 88.2703 193.21 86.748C193.392 89.3054 192.057 91.8628 189.567 93.0197Z" fill="#99ADF9"/>
<path d="M187.139 33.9515C188.11 33.0381 188.292 31.455 187.382 30.2981L176.27 16.2326C174.509 13.9796 174.752 10.9351 176.452 8.92578C178.82 12.0312 190.721 27.4972 191.814 29.5065C192.664 30.9679 189.446 32.8555 187.139 33.9515Z" fill="#99ADF9"/>
<path d="M73.5345 32.009C75.3117 32.009 76.7525 30.5642 76.7525 28.7818C76.7525 26.9995 75.3117 25.5547 73.5345 25.5547C71.7572 25.5547 70.3164 26.9995 70.3164 28.7818C70.3164 30.5642 71.7572 32.009 73.5345 32.009Z" fill="#BBCBFF"/>
<path d="M73.5345 19.4074C75.3117 19.4074 76.7525 17.9626 76.7525 16.1803C76.7525 14.398 75.3117 12.9531 73.5345 12.9531C71.7572 12.9531 70.3164 14.398 70.3164 16.1803C70.3164 17.9626 71.7572 19.4074 73.5345 19.4074Z" fill="#BBCBFF"/>
<path d="M73.5345 6.80198C75.3117 6.80198 76.7525 5.35713 76.7525 3.57482C76.7525 1.79251 75.3117 0.347656 73.5345 0.347656C71.7572 0.347656 70.3164 1.79251 70.3164 3.57482C70.3164 5.35713 71.7572 6.80198 73.5345 6.80198Z" fill="#BBCBFF"/>
</g>
<defs>
<clipPath id="clip0_799_12891">
<rect width="256" height="209" fill="white"/>
</clipPath>
</defs>
</svg>
