<svg width="88" height="88" viewBox="0 0 88 88" fill="none" xmlns="http://www.w3.org/2000/svg">
<g clip-path="url(#clip0_986_19110)">
<path d="M75.8379 85.0831V73.2489H78.9414L79.185 74.5065C79.4806 74.0723 79.8056 73.7504 80.1603 73.5407C80.5299 73.3311 80.8995 73.1964 81.2686 73.1367C81.6531 73.0617 82.0223 73.0244 82.377 73.0244C82.599 73.0244 82.7985 73.0316 82.9758 73.0469C83.1676 73.0469 83.2935 73.054 83.3526 73.0693V76.4825H82.6211C82.0001 76.4825 81.4388 76.5799 80.9365 76.7743C80.4486 76.9691 80.0641 77.2911 79.7834 77.74C79.5027 78.189 79.3624 78.818 79.3624 79.6262V85.0831H75.8379Z" fill="#4641D2"/>
<path d="M67.7257 85.3067C66.5266 85.3067 65.4887 85.0584 64.6114 84.5627C63.749 84.0671 63.0838 83.3684 62.6158 82.4669C62.1478 81.5505 61.9141 80.4761 61.9141 79.2441C61.9141 78.0121 62.155 76.9305 62.6375 75.9989C63.1203 75.0677 63.7927 74.339 64.6551 73.8128C65.5324 73.2871 66.5632 73.0244 67.7473 73.0244C68.6102 73.0244 69.3701 73.1667 70.0281 73.4523C70.7005 73.7378 71.2709 74.1437 71.7385 74.6695C72.2213 75.1952 72.5792 75.8189 72.8134 76.5399C73.0616 77.261 73.1862 78.0498 73.1862 78.906C73.1713 79.1314 73.1569 79.3568 73.1424 79.5822C73.1275 79.7928 73.091 80.0105 73.0327 80.2359H65.3569C65.4007 80.6113 65.5103 80.957 65.6859 81.2726C65.8614 81.5878 66.1101 81.8361 66.4314 82.0161C66.7532 82.1966 67.1625 82.2864 67.6598 82.2864C68.0104 82.2864 68.325 82.2491 68.6025 82.1742C68.8949 82.0839 69.1364 81.9636 69.3264 81.8132C69.5164 81.648 69.6409 81.4679 69.6991 81.2726H73.1203C72.9303 82.2191 72.5648 82.9927 72.0237 83.5938C71.483 84.1798 70.8395 84.6153 70.094 84.9008C69.3485 85.1711 68.5587 85.3067 67.7257 85.3067ZM65.4228 77.8244H69.8747C69.8747 77.5088 69.7944 77.2008 69.6332 76.9005C69.487 76.6001 69.2533 76.3594 68.9315 76.1794C68.6102 75.9841 68.1932 75.8862 67.6814 75.8862C67.1846 75.8862 66.7681 75.9841 66.4314 76.1794C66.0952 76.3747 65.847 76.6225 65.6859 76.9229C65.5252 77.2233 65.4372 77.5241 65.4228 77.8244Z" fill="#4641D2"/>
<path d="M48.6523 85.0828V69.2275H52.1665V77.6253H53.4928L56.145 73.2809H60.0793L56.4103 78.9017L60.3667 85.0828H56.3219L53.6034 80.7829H52.1665V85.0828H48.6523Z" fill="#4641D2"/>
<path d="M40.6962 85.3067C39.5128 85.3067 38.4921 85.066 37.6341 84.5852C36.7761 84.0895 36.1105 83.3833 35.6371 82.4669C35.1785 81.5505 34.9492 80.4685 34.9492 79.2217C34.9492 77.9448 35.1859 76.8479 35.6593 75.9316C36.1475 74.9999 36.8279 74.286 37.7007 73.7904C38.5735 73.2794 39.609 73.0244 40.8072 73.0244C41.7983 73.0244 42.6785 73.2121 43.4477 73.5874C44.2317 73.9484 44.853 74.4742 45.3116 75.1651C45.785 75.8561 46.0513 76.7051 46.1104 77.7118H42.6933C42.5749 77.2309 42.3456 76.878 42.0054 76.6526C41.68 76.412 41.2805 76.2921 40.8072 76.2921C40.2007 76.2921 39.7199 76.4497 39.3649 76.7653C39.0247 77.0657 38.7806 77.4415 38.6326 77.8922C38.4995 78.3426 38.4329 78.7862 38.4329 79.2217C38.4329 79.7025 38.5069 80.1605 38.6548 80.5964C38.8176 81.032 39.069 81.3853 39.4092 81.6556C39.7643 81.9259 40.2155 82.0615 40.7628 82.0615C41.2658 82.0615 41.6874 81.9411 42.0276 81.7005C42.3826 81.4603 42.6119 81.1074 42.7154 80.6413H46.2214C46.1768 81.6632 45.8961 82.5194 45.378 83.2104C44.8752 83.9018 44.2169 84.4276 43.4033 84.7881C42.5897 85.1338 41.6874 85.3067 40.6962 85.3067Z" fill="#4641D2"/>
<path d="M26.2261 85.3067C25.6799 85.3067 25.1631 85.2313 24.6759 85.0809C24.1886 84.93 23.753 84.7046 23.3692 84.4033C22.9853 84.1025 22.6826 83.7258 22.4611 83.2746C22.2397 82.8229 22.1289 82.2963 22.1289 81.6942C22.1289 80.8362 22.2987 80.1587 22.6383 79.6621C22.9927 79.1503 23.4651 78.774 24.0557 78.5334C24.6611 78.2775 25.3476 78.1118 26.1154 78.0364C26.8832 77.9614 27.6805 77.9237 28.5073 77.9237H29.6147C29.6147 77.5474 29.5409 77.2237 29.3932 76.9525C29.2603 76.6665 29.0536 76.4411 28.7731 76.2755C28.4926 76.1098 28.1456 76.0272 27.7322 76.0272C27.4369 76.0272 27.1563 76.0721 26.8906 76.1623C26.6396 76.2378 26.4255 76.3505 26.2483 76.5013C26.0859 76.6365 25.9751 76.8098 25.9161 77.0203H22.3947C22.498 76.3132 22.7121 75.7111 23.0369 75.2141C23.3765 74.7027 23.7899 74.2887 24.2772 73.9727C24.7792 73.6566 25.3403 73.4231 25.9604 73.2727C26.5805 73.107 27.2154 73.0244 27.8651 73.0244C29.5778 73.0244 30.8549 73.5133 31.6965 74.4917C32.5381 75.47 32.959 76.8852 32.959 78.7363V85.1258H29.7476L29.7254 83.5678C29.3563 84.1398 28.9355 84.5466 28.4631 84.7872C27.9906 85.0279 27.5476 85.1711 27.1342 85.216C26.7208 85.2766 26.4181 85.3067 26.2261 85.3067ZM27.1121 82.5293C27.555 82.5293 27.9684 82.4314 28.3523 82.2361C28.7362 82.0251 29.0462 81.762 29.2825 81.4459C29.5335 81.1146 29.659 80.7608 29.659 80.3845V80.204H27.4886C27.2523 80.204 27.0161 80.2189 26.7799 80.2489C26.5584 80.279 26.359 80.3392 26.1819 80.4299C26.0047 80.5049 25.8644 80.618 25.761 80.7684C25.6577 80.9188 25.606 81.1146 25.606 81.3552C25.606 81.6111 25.6725 81.8293 25.8054 82.0103C25.9382 82.1755 26.1154 82.3035 26.3369 82.3942C26.5731 82.4844 26.8315 82.5293 27.1121 82.5293Z" fill="#4641D2"/>
<path d="M13.2891 85.0831V73.2489H16.3925L16.6363 74.5065C16.9319 74.0723 17.257 73.7504 17.6117 73.5407C17.9811 73.3311 18.3506 73.1964 18.7201 73.1367C19.1043 73.0617 19.4737 73.0244 19.8284 73.0244C20.0501 73.0244 20.2496 73.0316 20.4269 73.0469C20.6191 73.0469 20.7446 73.054 20.8038 73.0693V76.4825H20.0722C19.4515 76.4825 18.89 76.5799 18.3875 76.7743C17.8999 76.9691 17.5156 77.2911 17.2348 77.74C16.9541 78.189 16.8137 78.818 16.8137 79.6262V85.0831H13.2891Z" fill="#4641D2"/>
<path d="M8.5816 85.3065C7.57962 85.3065 6.73238 85.1938 6.03985 84.968C5.34731 84.7273 4.81687 84.3215 4.44849 83.7495C4.09486 83.1626 3.91804 82.3428 3.91804 81.29V76.5959H2.23828V73.414H3.91804V70.3447H7.43228V73.414H9.75299V76.5959H7.43228V80.7705C7.43228 81.162 7.49857 81.4853 7.6312 81.7412C7.76383 81.9818 8.1027 82.1022 8.64789 82.1022H9.64247V85.3065H8.5816Z" fill="#4641D2"/>
<path d="M63.6304 49.8215C60.0558 56.2248 54.4848 61.2673 47.7769 64.1713C41.0692 67.0753 33.5975 67.6792 26.5145 65.8895C19.4315 64.1004 13.1309 60.0173 8.58481 54.2704C4.03872 48.5235 1.49976 41.4324 1.35964 34.0907C1.21953 26.7491 3.48605 19.565 7.80951 13.647C12.133 7.72909 18.2732 3.406 25.2827 1.34481C32.2921 -0.716377 39.7814 -0.401124 46.595 2.24193C53.4089 4.88499 59.1682 9.70896 62.9842 15.9696L51.1561 23.2588C48.9313 19.609 45.5737 16.7967 41.6016 15.2559C37.6294 13.715 33.2632 13.5312 29.1769 14.7329C25.0905 15.9345 21.5108 18.4548 18.9903 21.9049C16.4698 25.3549 15.1485 29.543 15.2302 33.8231C15.3118 38.1031 16.7921 42.2372 19.4423 45.5876C22.0926 48.9379 25.7657 51.3184 29.895 52.3613C34.0242 53.4043 38.3801 53.0523 42.2906 51.3592C46.201 49.6666 49.4489 46.7267 51.5329 42.9938L63.6304 49.8215Z" fill="#5550E4"/>
<path d="M44.408 39.0709C43.2184 41.201 41.3693 42.8777 39.145 43.843C36.9207 44.8083 34.4442 45.0091 32.096 44.4142C29.7479 43.8194 27.658 42.462 26.1475 40.5506C24.637 38.6391 23.7895 36.2795 23.7352 33.8341C23.6809 31.3888 24.4228 28.9931 25.8469 27.0152C27.271 25.0372 29.2986 23.5864 31.618 22.8859C33.9373 22.1852 36.4203 22.2735 38.6852 23.1371C40.9501 24.0006 42.8717 25.5918 44.1548 27.6659L34.7834 33.5837L44.408 39.0709Z" fill="#E24C3E"/>
<path d="M64.0238 39.5867C60.7281 42.3336 55.8525 41.861 53.134 38.5311C50.415 35.2013 50.883 30.2751 54.1787 27.5282C57.4744 24.7813 62.35 25.2539 65.0686 28.5837C67.7871 31.9136 67.3196 36.8398 64.0238 39.5867Z" fill="#9A97FF"/>
<path d="M81.4813 37.8477C79.1274 39.8097 75.6444 39.4721 73.7026 37.0937C71.7607 34.7152 72.0951 31.1965 74.449 29.2344C76.8029 27.2723 80.2854 27.6099 82.2273 29.9884C84.1696 32.3669 83.8352 35.8856 81.4813 37.8477Z" fill="#5550E4"/>
<path fill-rule="evenodd" clip-rule="evenodd" d="M63.0827 16.1638L35.1518 33.5119L63.6317 49.642L63.5234 49.8373L34.6602 33.5119L62.8533 15.7148L63.0827 16.1638Z" fill="#F3F4F6"/>
<path d="M82.8926 70.1201C82.5564 70.1201 82.2838 70.0654 82.0749 69.9554C81.8664 69.8458 81.7125 69.6783 81.6141 69.4525C81.5157 69.2213 81.4661 68.9285 81.4661 68.5752V65.8692H80.7012V65.3026H81.4661V63.8672H82.0839V65.3026H83.3534V65.8692H82.0839V68.511C82.0839 68.8648 82.1475 69.1297 82.2748 69.3066C82.4025 69.4772 82.6516 69.5625 83.023 69.5625H83.3272V70.1201H82.8926Z" fill="#9A97FF"/>
<path d="M77.3848 70.1202V65.2533H77.975L78.0012 66.1216C78.1172 65.8877 78.2589 65.7059 78.4268 65.5765C78.6005 65.4472 78.7887 65.3547 78.9913 65.2995C79.1994 65.238 79.411 65.207 79.6249 65.207C79.6597 65.207 79.6917 65.207 79.7206 65.207C79.7495 65.207 79.7811 65.207 79.8158 65.207V65.8073H79.6164C79.2341 65.8073 78.9218 65.8935 78.6786 66.0659C78.4412 66.2383 78.2675 66.4723 78.1574 66.7677C78.0536 67.0636 78.0012 67.3927 78.0012 67.7559V70.1202H77.3848Z" fill="#9A97FF"/>
<path d="M74.0698 70.1202C73.5806 70.1202 73.1708 70.017 72.8409 69.8104C72.511 69.5976 72.2633 69.3058 72.0981 68.9354C71.9393 68.5645 71.8594 68.142 71.8594 67.6683C71.8594 67.1884 71.942 66.7659 72.1071 66.4013C72.2723 66.0305 72.5196 65.7391 72.8499 65.5263C73.1798 65.3134 73.5896 65.207 74.0788 65.207C74.568 65.207 74.9746 65.3134 75.2986 65.5263C75.6285 65.7391 75.8731 66.0305 76.0324 66.4013C76.1976 66.7659 76.2801 67.1884 76.2801 67.6683C76.2801 68.142 76.1976 68.5645 76.0324 68.9354C75.8672 69.3058 75.6199 69.5976 75.2896 69.8104C74.9656 70.017 74.5589 70.1202 74.0698 70.1202ZM74.0698 69.555C74.4353 69.555 74.7359 69.4728 74.9714 69.3089C75.2074 69.1388 75.3812 68.9107 75.4931 68.6251C75.605 68.3396 75.661 68.0208 75.661 67.6683C75.661 67.3159 75.605 66.9967 75.4931 66.7111C75.3812 66.4256 75.2074 66.1975 74.9714 66.0273C74.7359 65.8576 74.4353 65.7723 74.0698 65.7723C73.7042 65.7723 73.4037 65.8576 73.1681 66.0273C72.9321 66.1975 72.7583 66.4256 72.6464 66.7111C72.5404 66.9967 72.4871 67.3159 72.4871 67.6683C72.4871 68.0208 72.5404 68.3396 72.6464 68.6251C72.7583 68.9107 72.9321 69.1388 73.1681 69.3089C73.4037 69.4728 73.7042 69.555 74.0698 69.555Z" fill="#9A97FF"/>
<path d="M66.9961 70.1196V63.6436H67.6157V66.1076C67.7321 65.9123 67.8747 65.7502 68.0431 65.6222C68.2119 65.4938 68.3951 65.3991 68.5927 65.338C68.7908 65.2711 68.9971 65.2374 69.2123 65.2374C69.66 65.2374 70.012 65.3349 70.2679 65.5306C70.5238 65.7259 70.7043 65.9917 70.809 66.3276C70.9195 66.6571 70.9746 67.0329 70.9746 67.454V70.1196H70.3554V67.6925C70.3554 67.4603 70.3405 67.234 70.3117 67.0145C70.2823 66.7887 70.2246 66.5839 70.137 66.4007C70.0558 66.2176 69.9308 66.0739 69.762 65.9702C69.5991 65.8602 69.3811 65.8054 69.1076 65.8054C68.8459 65.8054 68.6189 65.8633 68.4271 65.9791C68.2353 66.0891 68.0783 66.2418 67.956 66.4371C67.8395 66.6329 67.7524 66.8497 67.6942 67.0877C67.6419 67.3198 67.6157 67.5578 67.6157 67.802V70.1196H66.9961Z" fill="#9A97FF"/>
<path d="M64.0572 70.1202C63.8514 70.1202 63.6457 70.1018 63.4399 70.0654C63.2341 70.0228 63.04 69.9532 62.8577 69.8558C62.6754 69.7583 62.5197 69.6281 62.3902 69.4638C62.267 69.2999 62.1817 69.0992 62.1348 68.8622H62.7783C62.8491 69.0386 62.9547 69.1783 63.096 69.2815C63.2431 69.379 63.4047 69.4485 63.5811 69.4912C63.7576 69.5339 63.925 69.555 64.0839 69.555C64.1953 69.555 64.319 69.5491 64.4544 69.5365C64.5952 69.5186 64.7278 69.4822 64.851 69.4274C64.9747 69.3727 65.0744 69.2937 65.1511 69.1904C65.2333 69.0871 65.2743 68.9502 65.2743 68.78C65.2743 68.6283 65.2391 68.5066 65.1687 68.4154C65.1042 68.3243 65.0158 68.2516 64.9043 68.1968C64.7924 68.142 64.6687 68.1025 64.5338 68.0783C64.3221 68.0298 64.0956 67.9844 63.8546 67.9418C63.6136 67.8991 63.3956 67.8232 63.2016 67.7137C63.0843 67.671 62.9696 67.6194 62.8577 67.5588C62.7521 67.4919 62.6551 67.4129 62.5666 67.3217C62.4786 67.2306 62.4078 67.1215 62.355 66.9935C62.3022 66.866 62.2756 66.7174 62.2756 66.5472C62.2756 66.3102 62.323 66.1063 62.4168 65.9362C62.5107 65.7665 62.6375 65.6264 62.7959 65.5173C62.9606 65.4077 63.1488 65.3287 63.3605 65.2802C63.5721 65.2317 63.7955 65.207 64.0311 65.207C64.3131 65.207 64.5717 65.2528 64.8073 65.344C65.0482 65.4288 65.2482 65.5595 65.407 65.7359C65.5713 65.9119 65.6742 66.1337 65.7157 66.4013H65.1335C65.0686 66.2006 64.9336 66.0457 64.7278 65.9362C64.5221 65.8271 64.2838 65.7723 64.0135 65.7723C63.9133 65.7723 63.7986 65.7813 63.6691 65.7997C63.5401 65.8181 63.4164 65.8545 63.2986 65.9092C63.1813 65.9577 63.0843 66.0336 63.0075 66.1369C62.9313 66.2343 62.8929 66.3676 62.8929 66.5378C62.8929 66.6959 62.9313 66.8265 63.0075 66.9298C63.0843 67.033 63.1899 67.1152 63.3252 67.1758C63.4606 67.2306 63.6078 67.2795 63.7662 67.3217C63.9602 67.3644 64.1719 67.407 64.4016 67.4492C64.6367 67.4861 64.8307 67.5283 64.9833 67.5772C65.1773 67.6378 65.342 67.72 65.4774 67.8232C65.6128 67.9265 65.7157 68.054 65.7861 68.2062C65.8565 68.3517 65.8921 68.5281 65.8921 68.7347C65.8921 69.0144 65.8389 69.2452 65.7333 69.4274C65.6272 69.6034 65.4833 69.7435 65.301 69.8468C65.1245 69.9438 64.9278 70.0138 64.7102 70.0565C64.4923 70.0987 64.2748 70.1202 64.0572 70.1202Z" fill="#9A97FF"/>
</g>
<defs>
<clipPath id="clip0_986_19110">
<rect width="88" height="88" fill="white"/>
</clipPath>
</defs>
</svg>
