  <svg width="32" height="32" viewBox="0 0 32 32" fill="none" xmlns="http://www.w3.org/2000/svg">
<rect x="0.5" y="0.5" width="31" height="31" rx="15.5" fill="#DCE4F3" stroke="#DCE4F3"/>
<path d="M12 25.3281V24.3281C12 23.7977 12.2107 23.289 12.5858 22.9139C12.9609 22.5388 13.4696 22.3281 14 22.3281H18C18.5304 22.3281 19.0391 22.5388 19.4142 22.9139C19.7893 23.289 20 23.7977 20 24.3281V25.3281M21 14.3281H23C23.5304 14.3281 24.0391 14.5388 24.4142 14.9139C24.7893 15.289 25 15.7977 25 16.3281V17.3281M7 17.3281V16.3281C7 15.7977 7.21071 15.289 7.58579 14.9139C7.96086 14.5388 8.46957 14.3281 9 14.3281H11M14 17.3281C14 17.8586 14.2107 18.3673 14.5858 18.7423C14.9609 19.1174 15.4696 19.3281 16 19.3281C16.5304 19.3281 17.0391 19.1174 17.4142 18.7423C17.7893 18.3673 18 17.8586 18 17.3281C18 16.7977 17.7893 16.289 17.4142 15.9139C17.0391 15.5388 16.5304 15.3281 16 15.3281C15.4696 15.3281 14.9609 15.5388 14.5858 15.9139C14.2107 16.289 14 16.7977 14 17.3281ZM19 9.32812C19 9.85856 19.2107 10.3673 19.5858 10.7423C19.9609 11.1174 20.4696 11.3281 21 11.3281C21.5304 11.3281 22.0391 11.1174 22.4142 10.7423C22.7893 10.3673 23 9.85856 23 9.32812C23 8.79769 22.7893 8.28898 22.4142 7.91391C22.0391 7.53884 21.5304 7.32812 21 7.32812C20.4696 7.32812 19.9609 7.53884 19.5858 7.91391C19.2107 8.28898 19 8.79769 19 9.32812ZM9 9.32812C9 9.85856 9.21071 10.3673 9.58579 10.7423C9.96086 11.1174 10.4696 11.3281 11 11.3281C11.5304 11.3281 12.0391 11.1174 12.4142 10.7423C12.7893 10.3673 13 9.85856 13 9.32812C13 8.79769 12.7893 8.28898 12.4142 7.91391C12.0391 7.53884 11.5304 7.32812 11 7.32812C10.4696 7.32812 9.96086 7.53884 9.58579 7.91391C9.21071 8.28898 9 8.79769 9 9.32812Z" stroke="#B0B0B0" stroke-width="1.5" stroke-linecap="round" stroke-linejoin="round"/>
</svg>
