<svg width="32" height="32" viewBox="0 0 32 32" fill="none" xmlns="http://www.w3.org/2000/svg">
<g id="Big Icons">
<path id="Vector" d="M23 12.75C23.5304 12.75 24.0391 12.5525 24.4142 12.2008C24.7893 11.8492 25 11.3723 25 10.875C25 10.3777 24.7893 9.90081 24.4142 9.54917C24.0391 9.19754 23.5304 9 23 9H9C8.46957 9 7.96086 9.19754 7.58579 9.54917C7.21071 9.90081 7 10.3777 7 10.875C7 11.3723 7.21071 11.8492 7.58579 12.2008C7.96086 12.5525 8.46957 12.75 9 12.75M23 12.75H9M23 12.75V22.125C23 22.6223 22.7893 23.0992 22.4142 23.4508C22.0391 23.8025 21.5304 24 21 24H11C10.4696 24 9.96086 23.8025 9.58579 23.4508C9.21071 23.0992 9 22.6223 9 22.125V12.75M14 16.5H18" stroke="#5550E4" stroke-width="1.5" stroke-linecap="round" stroke-linejoin="round"/>
</g>
</svg>
