<svg width="12" height="6" viewBox="0 0 12 6" fill="none" xmlns="http://www.w3.org/2000/svg">
<path d="M11.9999 3.01363C11.9974 2.88393 11.9397 2.76023 11.8391 2.66871L9.11029 0.177004C9.06151 0.124274 9.00129 0.0813597 8.93344 0.0509712C8.86559 0.0205827 8.79159 0.00338034 8.71609 0.000449899C8.6406 -0.00248054 8.56526 0.00892465 8.49484 0.0339456C8.42441 0.0589666 8.36043 0.0970597 8.30693 0.145819C8.25342 0.194579 8.21157 0.252946 8.184 0.317235C8.15643 0.381525 8.14375 0.450339 8.14675 0.519334C8.14976 0.588328 8.16838 0.656004 8.20146 0.718088C8.23453 0.780172 8.28133 0.835315 8.3389 0.880035L10.1313 2.51793L0.546577 2.5217C0.401616 2.5217 0.262591 2.57432 0.160088 2.66799C0.0575856 2.76166 -1.26269e-07 2.8887 -1.3206e-07 3.02117C-1.3785e-07 3.15364 0.0575856 3.28068 0.160088 3.37435C0.262591 3.46802 0.401616 3.52064 0.546577 3.52064L10.1416 3.51499L8.3389 5.16042C8.24262 5.25505 8.19021 5.38009 8.19269 5.50927C8.19517 5.63846 8.25233 5.76175 8.35218 5.85324C8.45203 5.94472 8.58679 5.99729 8.72815 5.9999C8.86952 6.00251 9.00649 5.95495 9.11029 5.86722L11.8391 3.37551C11.8911 3.32816 11.9322 3.27172 11.9598 3.20954C11.9874 3.14736 12.0011 3.08073 11.9999 3.01363Z" fill="#6A6A6A"/>
</svg>
