<svg width="24" height="24" viewBox="0 0 24 24" fill="none" xmlns="http://www.w3.org/2000/svg">
<path d="M14 6.00007L21 13.0001L17 17.0001M4 20.0001L5.768 18.2321M5.828 18.1721C6.09062 18.4348 6.40241 18.6432 6.74558 18.7853C7.08874 18.9275 7.45655 19.0007 7.828 19.0007C8.19945 19.0007 8.56726 18.9275 8.91043 18.7853C9.25359 18.6432 9.56539 18.4348 9.828 18.1721L20.414 7.58607C20.5998 7.40035 20.7472 7.17983 20.8478 6.93713C20.9483 6.69442 21.0001 6.43429 21.0001 6.17157C21.0001 5.90886 20.9483 5.64872 20.8478 5.40602C20.7472 5.16331 20.5998 4.9428 20.414 4.75707L19.243 3.58607C19.0573 3.40027 18.8368 3.25288 18.5941 3.15232C18.3514 3.05176 18.0912 3 17.8285 3C17.5658 3 17.3057 3.05176 17.0629 3.15232C16.8202 3.25288 16.5997 3.40027 16.414 3.58607L5.828 14.1721C5.56531 14.4347 5.35692 14.7465 5.21475 15.0896C5.07257 15.4328 4.9994 15.8006 4.9994 16.1721C4.9994 16.5435 5.07257 16.9113 5.21475 17.2545C5.35692 17.5977 5.56531 17.9095 5.828 18.1721Z" stroke="#6A6A6A" stroke-width="1.5" stroke-linecap="round" stroke-linejoin="round"/>
</svg>
