<svg width="19" height="19" viewBox="0 0 19 19" fill="none" xmlns="http://www.w3.org/2000/svg">
<path d="M12.2708 9.5H9.5V5.54167M2.375 9.5C2.375 10.4357 2.55929 11.3622 2.91736 12.2266C3.27542 13.0911 3.80025 13.8765 4.46186 14.5381C5.12348 15.1998 5.90894 15.7246 6.77338 16.0826C7.63783 16.4407 8.56433 16.625 9.5 16.625C10.4357 16.625 11.3622 16.4407 12.2266 16.0826C13.0911 15.7246 13.8765 15.1998 14.5381 14.5381C15.1998 13.8765 15.7246 13.0911 16.0826 12.2266C16.4407 11.3622 16.625 10.4357 16.625 9.5C16.625 8.56433 16.4407 7.63783 16.0826 6.77338C15.7246 5.90894 15.1998 5.12348 14.5381 4.46186C13.8765 3.80025 13.0911 3.27542 12.2266 2.91736C11.3622 2.55929 10.4357 2.375 9.5 2.375C8.56433 2.375 7.63783 2.55929 6.77338 2.91736C5.90894 3.27542 5.12348 3.80025 4.46186 4.46186C3.80025 5.12348 3.27542 5.90894 2.91736 6.77338C2.55929 7.63783 2.375 8.56433 2.375 9.5Z" stroke="#6A6A6A" stroke-width="1.1875" stroke-linecap="round" stroke-linejoin="round"/>
</svg>
