<svg width="16" height="16" viewBox="0 0 16 16" fill="none" xmlns="http://www.w3.org/2000/svg">
<path d="M5.33333 6.0013H10.6667M5.33333 8.66797H9.33333M12 2.66797C12.5304 2.66797 13.0391 2.87868 13.4142 3.25376C13.7893 3.62883 14 4.13754 14 4.66797V10.0013C14 10.5317 13.7893 11.0404 13.4142 11.4155C13.0391 11.7906 12.5304 12.0013 12 12.0013H8.66667L5.33333 14.0013V12.0013H4C3.46957 12.0013 2.96086 11.7906 2.58579 11.4155C2.21071 11.0404 2 10.5317 2 10.0013V4.66797C2 4.13754 2.21071 3.62883 2.58579 3.25376C2.96086 2.87868 3.46957 2.66797 4 2.66797H12Z" stroke="#B0B0B0" stroke-linecap="round" stroke-linejoin="round"/>
</svg>
