<svg width="13" height="13" fill="none" xmlns="http://www.w3.org/2000/svg"><g clip-path="url(#a)" fill="#646464"><path d="M3.25 12.188a.406.406 0 0 1-.406-.407V9.75H1.625A1.22 1.22 0 0 1 .406 8.531v-6.5A1.22 1.22 0 0 1 1.625.812h9.75a1.22 1.22 0 0 1 1.219 1.22v6.5a1.22 1.22 0 0 1-1.219 1.218H6.439l-2.935 2.348a.406.406 0 0 1-.254.09zM1.625 1.624a.407.407 0 0 0-.406.406v6.5c0 .224.182.406.406.406H3.25a.406.406 0 0 1 .406.407v1.592l2.387-1.91a.406.406 0 0 1 .254-.088h5.078a.407.407 0 0 0 .406-.407v-6.5a.407.407 0 0 0-.406-.406h-9.75z"/><path d="M9.75 4.875h-6.5a.406.406 0 1 1 0-.813h6.5a.406.406 0 0 1 0 .813zM6.5 6.5H3.25a.406.406 0 1 1 0-.813H6.5a.406.406 0 1 1 0 .813z"/></g><defs><clipPath id="a"><path fill="#fff" d="M0 0h13v13H0z"/></clipPath></defs></svg>