<svg width="16" height="16" viewBox="0 0 16 16" fill="none" xmlns="http://www.w3.org/2000/svg">
<path d="M7.99935 2.66797C7.82254 2.66797 7.65297 2.73821 7.52794 2.86323C7.40292 2.98826 7.33268 3.15782 7.33268 3.33464C7.33268 3.51145 7.40292 3.68102 7.52794 3.80604C7.65297 3.93106 7.82254 4.0013 7.99935 4.0013C8.17616 4.0013 8.34573 3.93106 8.47075 3.80604C8.59578 3.68102 8.66602 3.51145 8.66602 3.33464C8.66602 3.15782 8.59578 2.98826 8.47075 2.86323C8.34573 2.73821 8.17616 2.66797 7.99935 2.66797Z" stroke="#B0B0B0" stroke-linecap="round" stroke-linejoin="round"/>
<path d="M7.99935 7.33464C7.82254 7.33464 7.65297 7.40487 7.52794 7.5299C7.40292 7.65492 7.33268 7.82449 7.33268 8.0013C7.33268 8.17811 7.40292 8.34768 7.52794 8.47271C7.65297 8.59773 7.82254 8.66797 7.99935 8.66797C8.17616 8.66797 8.34573 8.59773 8.47075 8.47271C8.59578 8.34768 8.66602 8.17811 8.66602 8.0013C8.66602 7.82449 8.59578 7.65492 8.47075 7.5299C8.34573 7.40487 8.17616 7.33464 7.99935 7.33464Z" stroke="#B0B0B0" stroke-linecap="round" stroke-linejoin="round"/>
<path d="M7.99935 12.0013C7.82254 12.0013 7.65297 12.0715 7.52794 12.1966C7.40292 12.3216 7.33268 12.4912 7.33268 12.668C7.33268 12.8448 7.40292 13.0143 7.52794 13.1394C7.65297 13.2644 7.82254 13.3346 7.99935 13.3346C8.17616 13.3346 8.34573 13.2644 8.47075 13.1394C8.59578 13.0143 8.66602 12.8448 8.66602 12.668C8.66602 12.4912 8.59578 12.3216 8.47075 12.1966C8.34573 12.0715 8.17616 12.0013 7.99935 12.0013Z" stroke="#B0B0B0" stroke-linecap="round" stroke-linejoin="round"/>
</svg>
