<svg width="32" height="32" viewBox="0 0 32 32" fill="none" xmlns="http://www.w3.org/2000/svg">
<g id="Big Icons">
<path id="Vector" d="M16.5556 9.875H25M16.5556 13.375H21.8333M16.5556 18.625H25M16.5556 22.125H21.8333M6 9.875C6 9.64294 6.11121 9.42038 6.30917 9.25628C6.50712 9.09219 6.7756 9 7.05556 9H11.2778C11.5577 9 11.8262 9.09219 12.0242 9.25628C12.2221 9.42038 12.3333 9.64294 12.3333 9.875V13.375C12.3333 13.6071 12.2221 13.8296 12.0242 13.9937C11.8262 14.1578 11.5577 14.25 11.2778 14.25H7.05556C6.7756 14.25 6.50712 14.1578 6.30917 13.9937C6.11121 13.8296 6 13.6071 6 13.375V9.875ZM6 18.625C6 18.3929 6.11121 18.1704 6.30917 18.0063C6.50712 17.8422 6.7756 17.75 7.05556 17.75H11.2778C11.5577 17.75 11.8262 17.8422 12.0242 18.0063C12.2221 18.1704 12.3333 18.3929 12.3333 18.625V22.125C12.3333 22.3571 12.2221 22.5796 12.0242 22.7437C11.8262 22.9078 11.5577 23 11.2778 23H7.05556C6.7756 23 6.50712 22.9078 6.30917 22.7437C6.11121 22.5796 6 22.3571 6 22.125V18.625Z" stroke="#5550E4" stroke-width="1.5" stroke-linecap="round" stroke-linejoin="round"/>
</g>
</svg>
