<svg width="20" height="20" viewBox="0 0 20 20" fill="none" xmlns="http://www.w3.org/2000/svg">
<g id="Small icons">
<path id="Vector" d="M3 18V16.2222C3 15.2792 3.35119 14.3749 3.97631 13.7081C4.60143 13.0413 5.44928 12.6667 6.33333 12.6667H9.66667C10.5507 12.6667 11.3986 13.0413 12.0237 13.7081C12.6488 14.3749 13 15.2792 13 16.2222V18M4.66667 5.55556C4.66667 6.49855 5.01786 7.40292 5.64298 8.06971C6.2681 8.73651 7.11594 9.11111 8 9.11111C8.88405 9.11111 9.7319 8.73651 10.357 8.06971C10.9821 7.40292 11.3333 6.49855 11.3333 5.55556C11.3333 4.61256 10.9821 3.70819 10.357 3.0414C9.7319 2.3746 8.88405 2 8 2C7.11594 2 6.2681 2.3746 5.64298 3.0414C5.01786 3.70819 4.66667 4.61256 4.66667 5.55556Z" stroke="#6A6A6A" stroke-width="1.25" stroke-linecap="round" stroke-linejoin="round"/>
</g>
</svg>
