<svg width="14" height="14" viewBox="0 0 14 14" fill="none" xmlns="http://www.w3.org/2000/svg">
<path d="M13.8489 13.0109L10.4125 9.57456C11.0533 8.75303 11.3984 7.73902 11.3984 6.69919C11.3984 4.10783 9.29054 2 6.69919 2C4.10783 2 2 4.10783 2 6.69919C2 9.29054 4.10783 11.3984 6.69919 11.3984C7.7484 11.3984 8.76711 11.0486 9.59099 10.4008L13.025 13.8348C13.2621 14.0531 13.6283 14.0367 13.8465 13.7996C14.0508 13.5766 14.0508 13.2339 13.8489 13.0109ZM3.16189 6.69919C3.16189 4.74862 4.74862 3.16423 6.69684 3.16423C8.64505 3.16423 10.2318 4.75097 10.2318 6.69919C10.2318 8.6474 8.64505 10.2341 6.69684 10.2341C4.74862 10.2341 3.16189 8.6474 3.16189 6.69919Z" fill="#858585"/>
</svg>
