<svg width="24" height="24" viewBox="0 0 24 24" fill="none" xmlns="http://www.w3.org/2000/svg">
<g id="Button/users-plus">
<path id="Vector" d="M3 20.0526V18.1579C3 17.1529 3.39925 16.189 4.10991 15.4783C4.82058 14.7677 5.78444 14.3684 6.78947 14.3684H10.5789C11.4884 14.3684 12.3221 14.6886 12.9758 15.222M15.3158 3.12316C16.1309 3.33187 16.8534 3.80593 17.3693 4.47061C17.8853 5.1353 18.1653 5.95279 18.1653 6.79422C18.1653 7.63564 17.8853 8.45313 17.3693 9.11782C16.8534 9.7825 16.1309 10.2566 15.3158 10.4653M15.3158 18.1579H21M18.1579 15.3158V21M4.89474 6.78947C4.89474 7.7945 5.29398 8.75837 6.00465 9.46904C6.71531 10.1797 7.67918 10.5789 8.68421 10.5789C9.68924 10.5789 10.6531 10.1797 11.3638 9.46904C12.0744 8.75837 12.4737 7.7945 12.4737 6.78947C12.4737 5.78444 12.0744 4.82058 11.3638 4.10991C10.6531 3.39925 9.68924 3 8.68421 3C7.67918 3 6.71531 3.39925 6.00465 4.10991C5.29398 4.82058 4.89474 5.78444 4.89474 6.78947Z" stroke="#6A6A6A" stroke-width="1.5" stroke-linecap="round" stroke-linejoin="round"/>
</g>
</svg>
