<svg width="12" height="8" viewBox="0 0 12 8" fill="none" xmlns="http://www.w3.org/2000/svg">
<path fill-rule="evenodd" clip-rule="evenodd" d="M11.8054 0.195191C11.9304 0.32021 12.0006 0.489748 12.0006 0.666524C12.0006 0.8433 11.9304 1.01284 11.8054 1.13786L5.13871 7.80452C5.01369 7.92951 4.84415 7.99972 4.66737 7.99972C4.4906 7.99972 4.32106 7.92951 4.19604 7.80452L0.862705 4.47119C0.799032 4.40969 0.748244 4.33613 0.713304 4.25479C0.678365 4.17346 0.659974 4.08598 0.659205 3.99746C0.658436 3.90894 0.675303 3.82115 0.708824 3.73922C0.742344 3.65729 0.791847 3.58286 0.854442 3.52026C0.917037 3.45767 0.991472 3.40816 1.0734 3.37464C1.15533 3.34112 1.24312 3.32425 1.33164 3.32502C1.42016 3.32579 1.50764 3.34418 1.58897 3.37912C1.67031 3.41406 1.74387 3.46485 1.80537 3.52852L4.66737 6.39052L10.8627 0.195191C10.9877 0.0702104 11.1573 0 11.334 0C11.5108 0 11.6804 0.0702104 11.8054 0.195191Z" fill="white"/>
</svg>
