<svg width="20" height="20" viewBox="0 0 20 20" fill="none" xmlns="http://www.w3.org/2000/svg">
<g id="Small icons">
<path id="Vector" d="M12.6667 6.66536V4.9987C12.6667 4.55667 12.4911 4.13275 12.1785 3.82019C11.866 3.50763 11.442 3.33203 11 3.33203H5.16667C4.72464 3.33203 4.30072 3.50763 3.98816 3.82019C3.67559 4.13275 3.5 4.55667 3.5 4.9987V14.9987C3.5 15.4407 3.67559 15.8646 3.98816 16.1772C4.30072 16.4898 4.72464 16.6654 5.16667 16.6654H11C11.442 16.6654 11.866 16.4898 12.1785 16.1772C12.4911 15.8646 12.6667 15.4407 12.6667 14.9987V13.332M6.83333 9.9987H18.5M18.5 9.9987L16 7.4987M18.5 9.9987L16 12.4987" stroke="#6A6A6A" stroke-width="1.25" stroke-linecap="round" stroke-linejoin="round"/>
</g>
</svg>
