<svg width="25" height="24" viewBox="0 0 25 24" fill="none" xmlns="http://www.w3.org/2000/svg">
<path d="M12.5 6C12.5 6.53043 12.7107 7.03914 13.0858 7.41421C13.4609 7.78929 13.9696 8 14.5 8C15.0304 8 15.5391 7.78929 15.9142 7.41421C16.2893 7.03914 16.5 6.53043 16.5 6M12.5 6C12.5 5.46957 12.7107 4.96086 13.0858 4.58579C13.4609 4.21071 13.9696 4 14.5 4C15.0304 4 15.5391 4.21071 15.9142 4.58579C16.2893 4.96086 16.5 5.46957 16.5 6M12.5 6H4.5M16.5 6H20.5M6.5 12C6.5 12.5304 6.71071 13.0391 7.08579 13.4142C7.46086 13.7893 7.96957 14 8.5 14C9.03043 14 9.53914 13.7893 9.91421 13.4142C10.2893 13.0391 10.5 12.5304 10.5 12M6.5 12C6.5 11.4696 6.71071 10.9609 7.08579 10.5858C7.46086 10.2107 7.96957 10 8.5 10C9.03043 10 9.53914 10.2107 9.91421 10.5858C10.2893 10.9609 10.5 11.4696 10.5 12M6.5 12H4.5M10.5 12H20.5M15.5 18C15.5 18.5304 15.7107 19.0391 16.0858 19.4142C16.4609 19.7893 16.9696 20 17.5 20C18.0304 20 18.5391 19.7893 18.9142 19.4142C19.2893 19.0391 19.5 18.5304 19.5 18M15.5 18C15.5 17.4696 15.7107 16.9609 16.0858 16.5858C16.4609 16.2107 16.9696 16 17.5 16C18.0304 16 18.5391 16.2107 18.9142 16.5858C19.2893 16.9609 19.5 17.4696 19.5 18M15.5 18H4.5M19.5 18H20.5" stroke="#6A6A6A" stroke-width="1.5" stroke-linecap="round" stroke-linejoin="round"/>
</svg>
