<svg width="12" height="12" viewBox="0 0 12 12" fill="none" xmlns="http://www.w3.org/2000/svg">
<g clip-path="url(#clip0_228_394)">
<path d="M11.2417 0.7588C10.7521 0.2696 10.1013 0 9.40927 0C8.71687 0 8.06607 0.2696 7.57687 0.7588L5.09767 3.238C4.60807 3.7276 4.33887 4.378 4.33887 5.0704C4.33887 5.7628 4.60847 6.4136 5.09767 6.9028C5.17567 6.9808 5.27807 7.02 5.38047 7.02C5.48287 7.02 5.58527 6.9808 5.66327 6.9028C5.81967 6.7464 5.81967 6.4932 5.66327 6.3372C5.32487 5.9988 5.13847 5.5492 5.13847 5.0704C5.13847 4.5916 5.32487 4.142 5.66327 3.8036L8.14247 1.3244C8.48087 0.9864 8.93087 0.8 9.40927 0.8C9.88767 0.8 10.3377 0.9864 10.6761 1.3248C11.0141 1.6632 11.2005 2.1128 11.2005 2.5912C11.2005 3.0696 11.0141 3.5196 10.6757 3.858L8.19647 6.3372C8.04007 6.4936 8.04007 6.7464 8.19647 6.9028C8.35287 7.0592 8.60567 7.0592 8.76207 6.9028L11.2413 4.4236C11.7309 3.934 12.0005 3.2832 12.0005 2.5912C12.0005 1.8992 11.7309 1.2488 11.2417 0.7588Z" fill="#444444"/>
<path d="M6.3368 5.09719C6.1804 5.25359 6.1804 5.50679 6.3368 5.66279C6.6752 6.00119 6.8616 6.45079 6.8616 6.92959C6.8616 7.40839 6.6752 7.85799 6.3368 8.19639L3.8576 10.6756C3.5196 11.0132 3.0696 11.1996 2.5912 11.1996C2.1128 11.1996 1.6628 11.0132 1.3244 10.6748C0.9864 10.3364 0.8 9.88679 0.8 9.40839C0.8 8.92999 0.9864 8.47999 1.3248 8.14159L3.804 5.66239C3.9604 5.50599 3.9604 5.25319 3.804 5.09679C3.6476 4.94039 3.3948 4.94039 3.2384 5.09679L0.7592 7.57599C0.2696 8.06559 0 8.71639 0 9.40839C0 10.1004 0.2696 10.7508 0.7588 11.2408C1.2484 11.73 1.8992 11.9996 2.5912 11.9996C3.2836 11.9996 3.9344 11.73 4.4236 11.2408L6.9028 8.76159C7.3924 8.27199 7.6616 7.62159 7.6616 6.92919C7.6616 6.23679 7.392 5.58599 6.9028 5.09679C6.7464 4.94079 6.4928 4.94079 6.3368 5.09719Z" fill="#444444"/>
</g>
<defs>
<clipPath id="clip0_228_394">
<rect width="12" height="12" fill="white"/>
</clipPath>
</defs>
</svg>
