<svg width="32" height="32" viewBox="0 0 32 32" fill="none" xmlns="http://www.w3.org/2000/svg">
<g id="Big Icons">
<path id="Vector" d="M9 23.0968V21.3083C9 20.3596 9.42143 19.4497 10.1716 18.7789C10.9217 18.1081 11.9391 17.7312 13 17.7312H16.5M22 23.9911V24M22 21.3083C22.4483 21.307 22.8832 21.1713 23.235 20.9228C23.5868 20.6743 23.8352 20.3275 23.9406 19.9378C24.0459 19.5482 24.0019 19.1381 23.8158 18.7734C23.6297 18.4087 23.3122 18.1104 22.914 17.9262C22.5162 17.7439 22.0611 17.6874 21.6228 17.7658C21.1845 17.8443 20.7888 18.053 20.5 18.3581M11 10.5771C11 11.5258 11.4214 12.4356 12.1716 13.1064C12.9217 13.7773 13.9391 14.1541 15 14.1541C16.0609 14.1541 17.0783 13.7773 17.8284 13.1064C18.5786 12.4356 19 11.5258 19 10.5771C19 9.62837 18.5786 8.71853 17.8284 8.0477C17.0783 7.37687 16.0609 7 15 7C13.9391 7 12.9217 7.37687 12.1716 8.0477C11.4214 8.71853 11 9.62837 11 10.5771Z" stroke="#5550E4" stroke-width="1.5" stroke-linecap="round" stroke-linejoin="round"/>
</g>
</svg>
