<svg width="24" height="25" viewBox="0 0 24 25" fill="none" xmlns="http://www.w3.org/2000/svg">
<path d="M10.9258 12.041C11.9641 12.041 12.9792 11.7331 13.8425 11.1562C14.7059 10.5794 15.3788 9.75942 15.7761 8.80011C16.1735 7.84079 16.2775 6.78519 16.0749 5.76679C15.8723 4.74839 15.3723 3.81293 14.6381 3.07871C13.9039 2.34448 12.9684 1.84447 11.95 1.6419C10.9316 1.43932 9.87601 1.54329 8.91669 1.94065C7.95738 2.33801 7.13744 3.01092 6.56057 3.87427C5.98369 4.73763 5.67578 5.75267 5.67578 6.79102C5.67737 8.18292 6.231 9.51735 7.21522 10.5016C8.19945 11.4858 9.53388 12.0394 10.9258 12.041ZM10.9258 3.04102C11.6675 3.04102 12.3925 3.26095 13.0092 3.67301C13.6259 4.08506 14.1065 4.67073 14.3903 5.35595C14.6742 6.04118 14.7484 6.79518 14.6037 7.52261C14.459 8.25003 14.1019 8.91822 13.5774 9.44267C13.053 9.96711 12.3848 10.3243 11.6574 10.469C10.9299 10.6137 10.1759 10.5394 9.49072 10.2556C8.8055 9.97174 8.21983 9.49109 7.80777 8.87441C7.39571 8.25772 7.17578 7.5327 7.17578 6.79102C7.17697 5.79682 7.57244 4.84369 8.27545 4.14068C8.97845 3.43768 9.93159 3.04221 10.9258 3.04102ZM21.7505 18.041H19.5005V15.791C19.5005 15.5921 19.4215 15.4013 19.2809 15.2607C19.1402 15.12 18.9494 15.041 18.7505 15.041C18.5516 15.041 18.3609 15.12 18.2202 15.2607C18.0795 15.4013 18.0005 15.5921 18.0005 15.791V18.041H15.7505C15.5516 18.041 15.3609 18.12 15.2202 18.2607C15.0795 18.4013 15.0005 18.5921 15.0005 18.791C15.0005 18.9899 15.0795 19.1807 15.2202 19.3213C15.3609 19.462 15.5516 19.541 15.7505 19.541H18.0005V21.791C18.0005 21.9899 18.0795 22.1807 18.2202 22.3213C18.3609 22.462 18.5516 22.541 18.7505 22.541C18.9494 22.541 19.1402 22.462 19.2809 22.3213C19.4215 22.1807 19.5005 21.9899 19.5005 21.791V19.541H21.7505C21.9494 19.541 22.1402 19.462 22.2809 19.3213C22.4215 19.1807 22.5005 18.9899 22.5005 18.791C22.5005 18.5921 22.4215 18.4013 22.2809 18.2607C22.1402 18.12 21.9494 18.041 21.7505 18.041Z" fill="black"/>
<path d="M15.7503 21.0406H3.76308C3.64101 21.0402 3.52077 21.0109 3.41219 20.9551C3.30362 20.8993 3.20977 20.8186 3.13833 20.7196C3.07252 20.6329 3.02867 20.5315 3.01052 20.4242C2.99236 20.3168 3.00045 20.2067 3.03408 20.1031C3.58142 18.4459 4.64021 17.0049 6.05821 15.9875C7.47621 14.97 9.18035 14.4284 10.9256 14.4406C12.4897 14.4389 14.0228 14.8762 15.3506 15.7029C15.4343 15.755 15.5275 15.7901 15.6247 15.8062C15.722 15.8223 15.8215 15.8191 15.9176 15.7967C16.0136 15.7743 16.1043 15.7333 16.1845 15.6759C16.2646 15.6185 16.3327 15.5458 16.3848 15.4621C16.4369 15.3784 16.472 15.2852 16.4881 15.188C16.5042 15.0907 16.501 14.9912 16.4787 14.8951C16.4563 14.7991 16.4152 14.7084 16.3578 14.6282C16.3004 14.5481 16.2278 14.48 16.1441 14.4279C14.578 13.4536 12.77 12.9383 10.9256 12.9406C8.86371 12.9277 6.85088 13.5691 5.17664 14.7726C3.50241 15.9761 2.25306 17.6796 1.60833 19.6381C1.50033 19.9667 1.47256 20.3163 1.52737 20.6578C1.58217 20.9992 1.71794 21.3226 1.92333 21.6009C2.13439 21.8912 2.41102 22.1277 2.7307 22.291C3.05039 22.4543 3.4041 22.5398 3.76308 22.5406H15.7503C15.9492 22.5406 16.14 22.4616 16.2807 22.321C16.4213 22.1803 16.5003 21.9895 16.5003 21.7906C16.5003 21.5917 16.4213 21.4009 16.2807 21.2603C16.14 21.1196 15.9492 21.0406 15.7503 21.0406Z" fill="black"/>
</svg>
