<svg width="13" height="13" viewBox="0 0 13 13" fill="none" xmlns="http://www.w3.org/2000/svg">
<g clip-path="url(#clip0_228_390)">
<path d="M3.25 12.1875C3.14229 12.1874 3.03902 12.1446 2.96286 12.0684C2.88669 11.9922 2.84386 11.889 2.84375 11.7812V9.75H1.625C0.953062 9.75 0.40625 9.20319 0.40625 8.53125V2.03125C0.40625 1.35931 0.953062 0.8125 1.625 0.8125H11.375C12.0469 0.8125 12.5938 1.35931 12.5938 2.03125V8.53125C12.5938 9.20319 12.0469 9.75 11.375 9.75H6.43947L3.50391 12.0985C3.43186 12.1562 3.34229 12.1876 3.25 12.1875ZM1.625 1.625C1.40075 1.625 1.21875 1.80741 1.21875 2.03125V8.53125C1.21875 8.75509 1.40075 8.9375 1.625 8.9375H3.25C3.35774 8.9375 3.46108 8.9803 3.53726 9.05649C3.61345 9.13267 3.65625 9.23601 3.65625 9.34375V10.9362L6.04297 9.02647C6.11504 8.96883 6.20459 8.93746 6.29688 8.9375H11.375C11.5992 8.9375 11.7812 8.75509 11.7812 8.53125V2.03125C11.7812 1.80741 11.5992 1.625 11.375 1.625H1.625Z" fill="#646464"/>
<path d="M9.75 4.875H3.25C3.14226 4.875 3.03892 4.8322 2.96274 4.75601C2.88655 4.67983 2.84375 4.57649 2.84375 4.46875C2.84375 4.36101 2.88655 4.25767 2.96274 4.18149C3.03892 4.1053 3.14226 4.0625 3.25 4.0625H9.75C9.85774 4.0625 9.96108 4.1053 10.0373 4.18149C10.1134 4.25767 10.1562 4.36101 10.1562 4.46875C10.1562 4.57649 10.1134 4.67983 10.0373 4.75601C9.96108 4.8322 9.85774 4.875 9.75 4.875ZM6.5 6.5H3.25C3.14226 6.5 3.03892 6.4572 2.96274 6.38101C2.88655 6.30483 2.84375 6.20149 2.84375 6.09375C2.84375 5.98601 2.88655 5.88267 2.96274 5.80649C3.03892 5.7303 3.14226 5.6875 3.25 5.6875H6.5C6.60774 5.6875 6.71108 5.7303 6.78726 5.80649C6.86345 5.88267 6.90625 5.98601 6.90625 6.09375C6.90625 6.20149 6.86345 6.30483 6.78726 6.38101C6.71108 6.4572 6.60774 6.5 6.5 6.5Z" fill="#646464"/>
</g>
<defs>
<clipPath id="clip0_228_390">
<rect width="13" height="13" fill="white"/>
</clipPath>
</defs>
</svg>
